<?xml version="1.0" standalone="no"?>
<!DOCTYPE svg PUBLIC "-//W3C//DTD SVG 20010904//EN"
 "http://www.w3.org/TR/2001/REC-SVG-20010904/DTD/svg10.dtd">
<svg version="1.0" xmlns="http://www.w3.org/2000/svg"
 width="1824.000000pt" height="663.000000pt" viewBox="0 0 1824.000000 663.000000"
 preserveAspectRatio="xMidYMid meet">

<g transform="translate(0.000000,663.000000) scale(0.100000,-0.100000)"
fill="#000000" stroke="none">
<path d="M3911 6578 c-18 -6 -57 -33 -86 -60 -38 -34 -61 -48 -82 -48 -192 0
-676 -314 -1222 -794 -221 -194 -611 -573 -834 -811 -77 -82 -168 -179 -202
-215 -33 -36 -94 -103 -134 -150 -119 -137 -171 -190 -194 -195 -12 -3 -124
-9 -248 -15 -142 -6 -253 -15 -300 -26 -349 -79 -539 -327 -459 -596 16 -56
69 -119 123 -147 40 -20 61 -24 126 -23 43 0 84 2 91 4 34 8 15 -39 -62 -149
-184 -262 -313 -489 -364 -638 -21 -62 -27 -100 -27 -170 -1 -81 2 -97 31
-159 42 -90 135 -182 229 -227 61 -30 77 -33 153 -32 53 0 102 7 129 17 25 9
48 13 51 9 4 -5 4 -39 0 -76 -15 -140 19 -250 106 -340 129 -132 275 -176 421
-126 94 31 165 102 240 239 77 141 417 665 449 691 8 6 14 16 14 21 0 6 11 23
25 40 20 24 26 27 31 14 3 -9 0 -26 -8 -39 -8 -12 -36 -74 -64 -137 -42 -99
-49 -124 -49 -180 0 -109 57 -175 177 -207 64 -17 69 -17 180 5 62 12 137 24
167 27 46 5 129 30 204 60 22 9 22 8 -59 -170 -61 -135 -94 -234 -94 -282 0
-13 -51 -107 -113 -210 -154 -255 -173 -298 -187 -412 -21 -164 21 -299 127
-404 64 -64 154 -113 225 -123 80 -11 182 52 249 156 25 38 34 17 16 -38 -43
-131 -42 -293 2 -392 46 -104 172 -220 262 -243 22 -5 39 -13 39 -18 0 -5 18
-9 40 -9 22 0 40 4 40 9 0 5 14 13 32 16 44 10 132 102 199 210 32 50 175 279
320 510 144 231 284 454 310 495 26 41 65 102 85 135 87 139 188 292 207 312
l20 22 31 -23 c42 -32 112 -62 163 -71 48 -8 69 -31 49 -55 -24 -28 -163 -265
-190 -323 -15 -32 -34 -99 -43 -148 -30 -167 11 -309 123 -422 58 -58 154
-112 219 -122 68 -11 144 25 211 98 31 34 60 71 64 82 7 17 9 15 9 -10 1 -17
-3 -35 -8 -40 -14 -17 -41 -154 -41 -214 1 -119 48 -240 129 -324 43 -46 133
-102 179 -112 17 -3 32 -11 32 -16 0 -5 18 -9 40 -9 22 0 40 4 40 9 0 5 13 12
29 16 39 8 107 69 153 136 20 30 91 142 158 249 67 107 211 336 319 508 108
172 225 358 260 415 35 56 101 159 147 229 90 138 104 148 155 110 38 -28 77
-42 174 -63 114 -24 150 -24 272 1 178 36 306 87 485 196 140 85 218 146 369
292 54 50 105 92 116 92 10 0 30 -6 44 -14 14 -7 52 -21 85 -30 96 -28 102
-34 138 -121 78 -195 249 -349 462 -417 98 -31 315 -31 424 0 159 45 324 121
458 210 35 23 68 42 73 42 5 0 48 -29 95 -64 293 -221 631 -262 1089 -131 192
55 500 172 560 212 11 7 26 13 34 13 8 0 46 -34 84 -76 116 -126 210 -175 374
-198 138 -19 267 3 409 70 100 47 265 150 363 228 104 82 117 84 141 24 22
-56 101 -168 147 -207 85 -75 269 -140 398 -141 112 0 302 62 430 140 68 41
83 42 120 7 31 -29 134 -82 195 -100 214 -64 484 -64 725 0 149 39 217 63 377
131 178 77 326 168 438 272 77 70 100 74 112 16 17 -81 86 -192 167 -269 128
-120 253 -166 450 -167 114 0 158 7 301 51 79 25 230 94 286 131 23 16 44 28
47 28 3 0 36 21 74 47 290 198 529 442 830 845 89 121 228 369 283 508 62 156
75 200 94 321 12 83 12 106 0 180 -17 103 -36 147 -91 220 -66 88 -170 149
-291 169 -47 8 -78 22 -127 56 -66 46 -69 51 -81 119 -29 171 -193 327 -374
356 -44 7 -78 19 -107 39 -64 46 -130 71 -227 86 -246 37 -570 -81 -891 -324
-95 -73 -103 -76 -160 -80 -33 -2 -85 0 -115 5 l-55 8 -1 65 c-3 145 -41 247
-120 320 -238 219 -789 170 -1425 -128 -236 -110 -406 -222 -550 -359 -53 -51
-99 -93 -101 -93 -3 0 -5 51 -4 113 1 100 -2 117 -23 160 -68 132 -208 196
-401 184 -77 -5 -133 -20 -182 -47 -13 -7 -35 -3 -80 15 -190 75 -425 73 -658
-5 -163 -54 -417 -198 -580 -330 -70 -55 -101 -62 -175 -35 -22 8 -65 14 -95
15 -30 0 -61 4 -68 8 -7 5 -17 44 -22 90 -12 110 -47 180 -129 263 -74 74
-168 127 -271 154 -62 16 -299 23 -334 9 -9 -3 -27 -3 -40 0 -22 5 -24 11 -28
89 -5 103 -38 178 -103 235 -114 101 -309 111 -477 26 -52 -27 -87 -32 -71
-11 6 6 13 21 16 32 3 11 15 46 26 78 31 88 36 162 17 238 -46 178 -198 273
-396 248 -138 -17 -229 -65 -346 -183 -146 -146 -204 -273 -204 -446 0 -64 5
-109 17 -140 17 -46 55 -105 81 -127 23 -19 -10 -27 -66 -16 -49 9 -130 -2
-194 -27 -117 -48 -302 -184 -461 -341 -132 -130 -136 -131 -160 -38 -13 52
-13 60 5 105 27 67 25 143 -5 231 -36 106 -76 157 -152 193 -31 15 -62 20
-143 20 -93 0 -111 -3 -176 -30 -77 -32 -112 -63 -186 -165 -49 -68 -69 -87
-124 -116 -45 -24 -65 -14 -45 22 6 13 62 101 124 194 62 94 118 181 126 195
20 38 15 146 -10 220 -31 89 -67 139 -131 178 l-55 33 -121 -3 c-116 -3 -124
-5 -190 -38 -51 -26 -80 -50 -117 -95 -60 -74 -392 -571 -491 -735 -15 -25
-49 -79 -76 -120 -27 -41 -74 -115 -104 -165 -93 -151 -86 -146 -191 -148
l-90 -2 -5 95 c-3 52 -11 104 -17 115 -19 35 -18 68 6 142 23 71 23 74 7 145
-32 142 -92 230 -182 264 -33 12 -67 15 -151 12 -100 -3 -113 -6 -178 -39 -59
-30 -80 -48 -132 -115 -35 -43 -75 -92 -90 -108 -30 -32 -108 -71 -123 -61
-11 7 21 63 111 193 170 248 180 275 155 389 -19 85 -55 165 -93 205 -31 33
-103 68 -139 68 -14 0 -33 4 -43 10 -17 9 -18 14 -6 72 24 113 -7 202 -104
298 -96 96 -246 184 -335 196 -30 5 -62 1 -97 -10 -28 -10 -54 -14 -57 -11 -3
3 0 32 6 64 23 110 -16 209 -121 308 -140 132 -316 204 -416 171z m167 -212
c82 -48 144 -98 170 -136 21 -30 23 -43 18 -92 -3 -31 -12 -71 -20 -90 -8 -18
-21 -51 -29 -73 -27 -73 -154 -376 -177 -426 -5 -8 -40 -92 -80 -185 -40 -93
-90 -206 -111 -252 -22 -45 -39 -85 -39 -87 0 -3 -14 -35 -31 -72 -17 -38 -39
-86 -49 -108 -10 -22 -37 -80 -59 -128 -23 -49 -41 -90 -41 -92 0 -2 -20 -47
-45 -99 -25 -53 -45 -98 -45 -100 0 -3 -17 -42 -39 -88 -87 -186 -111 -239
-111 -243 0 -2 -21 -48 -46 -102 -66 -141 -77 -165 -134 -293 -29 -63 -70
-153 -92 -200 -22 -47 -48 -103 -58 -125 -10 -22 -38 -83 -63 -135 -24 -52
-59 -126 -77 -165 -160 -344 -294 -577 -395 -684 -85 -89 -143 -117 -270 -131
-55 -6 -124 -18 -154 -26 -85 -24 -128 -5 -122 54 1 12 24 68 50 125 27 56 63
134 81 172 18 39 54 115 80 170 26 55 61 129 78 165 16 36 54 115 82 175 29
61 69 146 90 190 21 44 65 138 99 209 33 70 61 134 61 141 0 19 -47 22 -794
45 -195 6 -305 6 -317 0 -10 -6 -89 -106 -176 -223 -206 -276 -201 -269 -356
-502 -146 -219 -156 -235 -280 -440 -47 -77 -98 -153 -112 -168 -34 -33 -93
-50 -143 -41 -78 14 -171 97 -202 179 -50 130 133 476 534 1010 75 99 136 189
136 199 0 18 -7 19 -142 12 -79 -3 -191 -11 -249 -18 -130 -14 -156 -8 -175
37 -45 108 31 240 177 312 109 54 162 62 444 73 143 6 276 15 296 20 26 7 50
26 84 68 26 31 122 140 214 242 645 716 1314 1327 1796 1643 138 90 311 184
366 198 43 12 49 11 92 -14 25 -15 50 -27 55 -27 6 0 27 30 47 68 61 111 82
118 183 58z m5480 -846 c36 -22 71 -87 72 -131 0 -50 -42 -164 -86 -230 -94
-141 -242 -238 -366 -239 -47 0 -106 30 -128 65 -28 45 -28 160 0 233 52 135
165 255 289 303 66 26 176 25 219 -1z m-4456 -250 c10 -14 25 -48 32 -76 17
-65 15 -70 -101 -244 -154 -232 -571 -865 -616 -937 -35 -55 -37 -81 -4 -54
149 127 198 166 292 236 182 134 387 249 541 301 65 22 98 27 184 28 122 1
159 -13 226 -86 63 -68 77 -116 71 -239 -6 -135 -15 -169 -103 -379 -48 -114
-63 -146 -131 -270 -227 -414 -640 -873 -958 -1062 -200 -120 -373 -178 -527
-178 -182 0 -300 79 -323 217 -3 23 -13 44 -22 47 -9 4 -17 5 -18 4 -11 -16
-156 -242 -250 -388 -65 -102 -137 -214 -160 -250 -23 -36 -54 -85 -69 -110
-15 -25 -56 -90 -91 -145 -35 -55 -96 -152 -135 -215 -39 -63 -106 -170 -148
-237 -42 -67 -95 -151 -116 -185 -22 -35 -60 -94 -84 -133 -133 -207 -128
-203 -198 -171 -51 24 -102 74 -130 127 -23 44 -22 199 2 259 16 43 208 364
479 805 68 110 175 286 240 390 64 105 165 269 225 365 59 96 147 238 195 315
47 77 135 219 195 315 59 96 147 238 195 315 48 77 122 196 165 265 43 69 104
166 135 215 31 50 85 135 120 190 35 55 76 120 91 145 96 158 477 729 520 779
51 59 83 71 178 68 71 -2 81 -4 98 -27z m2171 12 c26 -28 47 -88 47 -132 0
-33 -12 -58 -69 -143 -86 -129 -493 -747 -635 -965 -26 -41 -44 -78 -40 -82 5
-5 43 21 84 56 256 222 554 408 768 480 62 21 97 27 182 28 122 1 160 -13 224
-84 77 -85 100 -186 72 -316 -68 -313 -288 -725 -568 -1062 -271 -326 -472
-500 -733 -633 -168 -86 -285 -119 -417 -119 -172 0 -274 63 -318 196 -12 38
-26 73 -30 77 -4 4 -26 -23 -50 -60 -24 -37 -68 -106 -99 -153 -164 -255 -222
-347 -265 -415 -21 -33 -66 -105 -101 -160 -35 -55 -96 -152 -135 -215 -40
-63 -107 -171 -150 -240 -84 -133 -176 -279 -225 -359 -98 -156 -150 -230
-170 -241 -69 -37 -189 69 -215 190 -15 73 -3 163 34 240 19 40 109 191 158
268 10 15 22 36 28 47 6 11 18 32 28 47 9 15 78 127 152 248 74 122 142 232
150 245 8 13 61 100 118 192 57 92 152 247 212 343 60 96 154 249 210 340 56
91 144 233 195 315 51 83 132 213 180 290 47 77 122 196 165 265 44 69 85 135
92 147 17 29 113 182 193 308 35 55 80 127 101 160 21 33 58 92 82 130 25 39
61 95 80 125 118 185 366 552 398 589 49 57 82 70 175 71 61 0 79 -4 92 -18z
m2210 -459 c3 -5 -6 -41 -20 -82 -42 -132 -42 -212 3 -368 9 -33 -41 -75 -121
-102 -37 -12 -85 -30 -108 -41 -22 -11 -44 -20 -49 -20 -11 0 -10 47 1 54 4 3
18 35 31 72 16 48 21 79 16 110 -9 68 -58 164 -114 225 -62 68 -68 92 -20 78
77 -22 207 0 306 50 62 33 69 35 75 24z m5743 -107 c191 -28 264 -96 264 -243
0 -73 -18 -151 -46 -200 -66 -115 -283 -233 -430 -233 -72 0 -94 8 -141 53
-40 37 -40 48 -7 111 22 42 24 50 11 63 -29 29 -263 -31 -453 -115 -231 -102
-512 -311 -547 -405 -12 -32 31 -61 118 -81 44 -9 98 -21 120 -26 22 -5 85
-19 140 -31 468 -101 664 -198 753 -375 38 -75 47 -129 32 -203 -24 -122 -72
-202 -191 -320 -91 -90 -219 -167 -461 -275 -66 -29 -250 -87 -348 -108 -74
-16 -131 -21 -260 -21 -179 -1 -267 13 -367 60 -56 26 -149 118 -159 158 -10
41 -37 35 -118 -26 -165 -125 -320 -189 -457 -189 -192 0 -310 76 -386 248
-29 66 -41 205 -25 310 5 38 5 65 0 68 -5 4 -69 -54 -142 -127 -264 -267 -553
-453 -747 -482 -91 -13 -184 -1 -262 33 -101 45 -208 177 -232 288 -4 19 -13
32 -22 32 -8 0 -54 -22 -102 -50 -176 -101 -442 -206 -686 -270 -233 -61 -456
-72 -599 -32 -174 50 -318 144 -419 274 l-44 57 -59 -50 c-246 -208 -562 -336
-773 -314 -78 8 -170 38 -226 73 -135 85 -245 248 -245 361 0 49 30 159 69
256 33 80 163 337 207 407 13 20 24 40 24 43 0 2 59 102 131 221 158 263 171
288 162 311 -4 10 -24 38 -44 63 -59 70 -63 90 -30 142 67 105 310 320 458
404 126 72 209 69 288 -11 87 -86 96 -136 44 -240 -52 -103 -149 -285 -176
-327 -12 -21 -23 -40 -23 -43 0 -2 -20 -39 -45 -81 -25 -41 -45 -77 -45 -79 0
-2 -27 -49 -60 -105 -33 -56 -60 -103 -60 -105 0 -2 -34 -61 -75 -130 -41 -70
-75 -129 -75 -131 0 -5 -73 -125 -115 -189 -104 -160 -153 -306 -125 -375 27
-66 168 -65 303 1 102 50 170 101 289 217 122 119 137 143 153 247 11 69 65
226 114 330 254 536 760 932 1330 1039 104 20 290 21 352 2 108 -33 193 -100
230 -179 25 -57 26 -175 0 -248 -54 -156 -195 -339 -306 -397 -39 -20 -65 -26
-115 -26 -108 -1 -160 46 -160 144 0 58 9 77 78 178 61 88 76 124 68 157 -6
22 -12 25 -50 25 -90 0 -218 -51 -365 -147 -310 -201 -572 -465 -678 -684 -55
-114 -69 -157 -89 -277 -19 -120 -12 -181 33 -270 68 -134 200 -177 473 -154
144 13 203 23 375 69 182 47 310 105 499 221 132 82 150 100 177 184 12 40 26
80 30 88 5 8 26 51 47 95 99 205 214 356 423 560 373 363 738 554 1058 555
149 0 260 -39 335 -120 l29 -31 52 55 c61 64 81 71 195 71 117 0 172 -29 192
-101 15 -55 1 -108 -47 -172 -138 -188 -407 -730 -498 -1002 -74 -222 -92
-333 -66 -411 16 -46 35 -59 87 -59 116 0 273 122 582 456 69 75 95 89 132 70
31 -15 47 -66 47 -153 1 -60 5 -76 24 -100 16 -19 26 -47 31 -87 7 -67 37
-115 90 -147 23 -14 50 -19 104 -19 241 0 529 72 681 170 71 46 94 77 89 121
-5 58 -66 86 -325 149 -483 117 -580 152 -677 239 -84 76 -116 207 -85 353 34
161 199 374 394 510 292 202 757 387 1086 432 136 18 176 19 285 2z m1747
-146 c27 -13 62 -41 79 -62 30 -38 30 -38 106 -38 88 0 138 -20 196 -78 50
-49 65 -79 74 -149 41 -313 -256 -857 -742 -1361 -180 -187 -410 -357 -611
-451 -390 -184 -712 -108 -822 194 -15 41 -18 80 -18 220 1 160 2 177 32 285
53 191 129 363 238 539 187 300 583 663 895 821 160 81 278 110 425 107 83 -2
108 -7 148 -27z m-1790 -1129 c-13 -39 -23 -51 -38 -51 -25 1 -57 43 -49 64 5
13 92 47 102 40 2 -1 -5 -25 -15 -53z m-4407 -145 c-9 -28 -24 -60 -34 -72
-33 -41 -282 -186 -336 -196 -43 -7 -22 28 71 118 95 94 230 203 282 230 24
13 26 12 29 -8 2 -11 -4 -44 -12 -72z m3040 -202 c23 -11 36 -25 40 -43 3 -14
9 -44 14 -66 12 -52 -1 -67 -54 -63 -39 3 -41 5 -50 43 -4 22 -15 57 -22 77
-24 66 3 85 72 52z m-6206 -20 c0 -8 -5 -12 -10 -9 -6 4 -8 11 -5 16 9 14 15
11 15 -7z m-20 -28 c0 -43 -298 -367 -335 -365 -17 1 -17 2 -2 6 9 2 17 8 17
13 0 5 12 22 28 38 27 29 36 40 136 157 28 33 53 62 56 65 3 3 22 26 43 53 39
48 57 58 57 33z m-2233 -48 c-3 -8 -6 -5 -6 6 -1 11 2 17 5 13 3 -3 4 -12 1
-19z m-35 -56 c-7 -2 -12 -9 -12 -16 0 -18 -25 -48 -131 -157 -52 -55 -98 -96
-102 -93 -3 4 2 16 12 28 11 11 43 48 71 81 116 136 165 185 169 173 2 -6 -1
-14 -7 -16z m11648 -42 c0 -5 -5 -10 -11 -10 -5 0 -7 5 -4 10 3 6 8 10 11 10
2 0 4 -4 4 -10z m-30 -36 c0 -8 -5 -12 -10 -9 -6 4 -8 11 -5 16 9 14 15 11 15
-7z m-57 -72 c-97 -118 -308 -300 -336 -288 -7 2 -4 5 6 5 9 1 17 7 17 14 0 6
21 27 45 46 25 18 100 89 168 156 121 121 173 156 100 67z m-11823 -132 c0 -5
-5 -10 -11 -10 -5 0 -7 5 -4 10 3 6 8 10 11 10 2 0 4 -4 4 -10z m-2343 -1922
c-3 -7 -5 -2 -5 12 0 14 2 19 5 13 2 -7 2 -19 0 -25z"/>
<path d="M3529 5733 c-547 -428 -1118 -966 -1563 -1473 -22 -25 -52 -59 -68
-76 -53 -57 -45 -59 358 -73 198 -7 402 -16 454 -20 52 -4 100 -4 106 1 12 9
37 59 129 253 31 66 79 165 105 220 26 55 72 152 103 215 143 300 204 427 393
818 46 95 84 177 84 182 0 24 -23 13 -101 -47z"/>
<path d="M5098 4071 c-236 -120 -822 -678 -1204 -1146 -78 -96 -78 -121 2
-156 164 -73 371 8 679 267 214 179 387 386 542 644 73 123 133 283 133 356 0
68 -60 81 -152 35z"/>
<path d="M7279 4071 c-152 -77 -373 -264 -709 -601 -265 -264 -560 -602 -560
-640 0 -59 149 -104 266 -80 244 50 647 386 911 760 134 189 210 344 234 472
11 59 10 69 -5 92 -22 35 -65 34 -137 -3z"/>
<path d="M12520 4141 c-242 -66 -472 -212 -710 -451 -196 -197 -360 -436 -475
-695 -37 -83 -45 -181 -17 -215 19 -24 22 -24 59 -11 50 18 131 73 267 183
171 139 436 377 527 475 82 89 513 666 529 709 9 24 9 24 -53 23 -34 0 -91 -9
-127 -18z"/>
<path d="M16725 4228 c-106 -39 -293 -158 -437 -278 -260 -217 -524 -588 -618
-870 -27 -81 -37 -222 -20 -274 13 -40 59 -76 96 -76 77 0 255 90 411 207 232
174 563 591 716 902 50 102 62 135 65 186 5 69 0 75 -65 94 -42 12 -73 48 -73
85 0 13 -30 38 -42 35 -2 0 -16 -5 -33 -11z m-127 -285 c-10 -2 -18 -11 -18
-19 0 -8 -4 -14 -8 -14 -17 0 -133 -102 -292 -257 -57 -57 -108 -103 -112
-103 -5 0 -8 -7 -8 -15 0 -8 -4 -15 -9 -15 -5 0 -7 9 -4 20 3 11 12 20 19 20
8 0 14 7 14 15 0 8 5 15 10 15 6 0 10 7 10 15 0 7 6 18 13 22 7 4 27 26 44 49
18 22 64 67 104 100 39 32 85 71 103 86 17 15 39 30 49 34 9 3 17 10 17 15 0
5 6 9 14 9 7 0 19 7 26 15 7 8 20 14 29 14 13 -1 13 -2 -1 -6z"/>
</g>
</svg>
